<?xml version="1.0" encoding="UTF-8" standalone="no"?>
<!-- Created with Inkscape (http://www.inkscape.org/) -->

<svg
   xmlns:dc="http://purl.org/dc/elements/1.1/"
   xmlns:cc="http://creativecommons.org/ns#"
   xmlns:rdf="http://www.w3.org/1999/02/22-rdf-syntax-ns#"
   xmlns:svg="http://www.w3.org/2000/svg"
   xmlns="http://www.w3.org/2000/svg"
   xmlns:sodipodi="http://sodipodi.sourceforge.net/DTD/sodipodi-0.dtd"
   xmlns:inkscape="http://www.inkscape.org/namespaces/inkscape"
   width="210mm"
   height="297mm"
   viewBox="0 0 210 297"
   version="1.1"
   id="svg8"
   inkscape:version="0.92.4 (5da689c313, 2019-01-14)"
   sodipodi:docname="logo.svg">
  <defs
     id="defs2">
	
</defs>
  <sodipodi:namedview
     id="base"
     pagecolor="#ffffff"
     bordercolor="#666666"
     borderopacity="1.0"
     inkscape:pageopacity="0.0"
     inkscape:pageshadow="2"
     inkscape:zoom="0.87385074"
     inkscape:cx="580.16431"
     inkscape:cy="507.0764"
     inkscape:document-units="mm"
     inkscape:current-layer="layer1"
     showgrid="false"
     inkscape:window-width="1920"
     inkscape:window-height="1013"
     inkscape:window-x="-9"
     inkscape:window-y="-9"
     inkscape:window-maximized="1" />
  <metadata
     id="metadata5">
    <rdf:RDF>
      <cc:Work
         rdf:about="">
        <dc:format>image/svg+xml</dc:format>
        <dc:type
           rdf:resource="http://purl.org/dc/dcmitype/StillImage" />
        <dc:title></dc:title>
      </cc:Work>
    </rdf:RDF>
  </metadata>
  <g
     inkscape:label="Layer 1"
     inkscape:groupmode="layer"
     id="layer1">
    <circle
       id="path3728"
       cx="107.80266"
       cy="163.36679"
       r="97.220566"
       style="fill:#ffcc00;stroke-width:0.71971214" />
    <text
       xml:space="preserve"
       style="font-style:normal;font-variant:normal;font-weight:normal;font-stretch:normal;font-size:25.39999962px;line-height:1.25;font-family:Corbel;-inkscape-font-specification:'Corbel, Normal';font-variant-ligatures:normal;font-variant-caps:normal;font-variant-numeric:normal;font-feature-settings:normal;text-align:start;letter-spacing:0px;word-spacing:0px;writing-mode:lr-tb;text-anchor:start;fill:#000000;fill-opacity:1;stroke:none;stroke-width:0.26458332"
       x="28.632296"
       y="172.19106"
       id="text3715"><tspan
         sodipodi:role="line"
         id="tspan3713"
         x="28.632296"
         y="172.19106"
         style="font-style:normal;font-variant:normal;font-weight:normal;font-stretch:normal;font-size:25.39999962px;font-family:Corbel;-inkscape-font-specification:'Corbel, Normal';font-variant-ligatures:normal;font-variant-caps:normal;font-variant-numeric:normal;font-feature-settings:normal;text-align:start;writing-mode:lr-tb;text-anchor:start;stroke-width:0.26458332">WebAudioFont</tspan></text>
    <g
       id="g4624"
       transform="matrix(0.09802997,0,0,0.09802997,87.465164,196.24951)">
		<path
   id="path4600"
   d="M 61.204,181.816 H 37.627 v 52.741 c 0,4.429 -2.949,8.172 -6.989,9.37 v 60.314 h 30.566 z"
   inkscape:connector-curvature="0" />

		<path
   id="path4602"
   d="m 133.197,243.999 c -4.168,-1.116 -7.24,-4.92 -7.24,-9.441 v -52.741 h -16.005 v 52.741 c 0,4.552 -3.113,8.376 -7.322,9.462 v 60.221 h 30.566 v -60.242 z"
   inkscape:connector-curvature="0" />

		<path
   id="path4604"
   d="m 97.341,243.912 c -4.014,-1.213 -6.938,-4.946 -6.938,-9.354 V 181.817 H 66.775 v 122.424 h 30.566 z"
   inkscape:connector-curvature="0" />

		<path
   id="path4606"
   d="m 400.312,48.276 h -385.7 c -8.003,0 -14.49,6.487 -14.49,14.49 v 253.353 c 0,8.003 6.487,14.49 14.49,14.49 h 385.7 c 8.003,0 14.49,-6.487 14.49,-14.49 V 62.766 c 0,-8.002 -6.492,-14.49 -14.49,-14.49 z m -27.771,28.749 c 6.42,0 11.622,5.202 11.622,11.622 0,6.42 -5.202,11.622 -11.622,11.622 -6.42,0 -11.622,-5.202 -11.622,-11.622 0,-6.42 5.202,-11.622 11.622,-11.622 z m 0,35.502 c 6.42,0 11.622,5.202 11.622,11.622 0,6.42 -5.202,11.622 -11.622,11.622 -6.42,0 -11.622,-5.202 -11.622,-11.622 0,-6.415 5.202,-11.622 11.622,-11.622 z M 339.523,77.025 c 6.42,0 11.622,5.202 11.622,11.622 0,6.42 -5.202,11.622 -11.622,11.622 -6.42,0 -11.623,-5.201 -11.623,-11.621 0,-6.42 5.202,-11.623 11.623,-11.623 z m 0,35.502 c 6.42,0 11.622,5.202 11.622,11.622 0,6.42 -5.202,11.622 -11.622,11.622 -6.42,0 -11.623,-5.201 -11.623,-11.621 0,-6.416 5.202,-11.623 11.623,-11.623 z M 306.504,77.025 c 6.42,0 11.622,5.202 11.622,11.622 0,6.42 -5.202,11.622 -11.622,11.622 -6.42,0 -11.622,-5.202 -11.622,-11.622 -0.001,-6.42 5.201,-11.622 11.622,-11.622 z m 0,35.502 c 6.42,0 11.622,5.202 11.622,11.622 0,6.42 -5.202,11.622 -11.622,11.622 -6.42,0 -11.622,-5.202 -11.622,-11.622 -0.001,-6.415 5.201,-11.622 11.622,-11.622 z M 273.485,77.025 c 6.42,0 11.622,5.202 11.622,11.622 0,6.42 -5.202,11.622 -11.622,11.622 -6.421,0 -11.622,-5.202 -11.622,-11.622 0,-6.42 5.206,-11.622 11.622,-11.622 z m 0,35.502 c 6.42,0 11.622,5.202 11.622,11.622 0,6.42 -5.202,11.622 -11.622,11.622 -6.421,0 -11.622,-5.202 -11.622,-11.622 -10e-4,-6.415 5.206,-11.622 11.622,-11.622 z M 141.435,77.025 c 6.42,0 11.622,5.202 11.622,11.622 0,6.42 -5.202,11.622 -11.622,11.622 -6.421,0 -11.622,-5.202 -11.622,-11.622 0,-6.42 5.201,-11.622 11.622,-11.622 z m 0,35.502 c 6.42,0 11.622,5.202 11.622,11.622 0,6.42 -5.202,11.622 -11.622,11.622 -6.421,0 -11.622,-5.202 -11.622,-11.622 -10e-4,-6.415 5.201,-11.622 11.622,-11.622 z M 108.416,77.025 c 6.42,0 11.622,5.202 11.622,11.622 0,6.42 -5.202,11.622 -11.622,11.622 -6.42,0 -11.622,-5.202 -11.622,-11.622 0,-6.42 5.202,-11.622 11.622,-11.622 z m 0,35.502 c 6.42,0 11.622,5.202 11.622,11.622 0,6.42 -5.202,11.622 -11.622,11.622 -6.42,0 -11.622,-5.202 -11.622,-11.622 0,-6.415 5.202,-11.622 11.622,-11.622 z M 75.397,77.025 c 6.42,0 11.622,5.202 11.622,11.622 0,6.42 -5.202,11.622 -11.622,11.622 -6.42,0 -11.622,-5.202 -11.622,-11.622 0,-6.42 5.202,-11.622 11.622,-11.622 z m 0,35.502 c 6.42,0 11.622,5.202 11.622,11.622 0,6.42 -5.202,11.622 -11.622,11.622 -6.42,0 -11.622,-5.202 -11.622,-11.622 0,-6.415 5.202,-11.622 11.622,-11.622 z M 42.378,77.025 c 6.42,0 11.622,5.202 11.622,11.622 0,6.42 -5.202,11.622 -11.622,11.622 -6.42,0 -11.622,-5.202 -11.622,-11.622 0,-6.42 5.202,-11.622 11.622,-11.622 z m 0,35.502 c 6.42,0 11.622,5.202 11.622,11.622 0,6.42 -5.202,11.622 -11.622,11.622 -6.42,0 -11.622,-5.202 -11.622,-11.622 0,-6.415 5.202,-11.622 11.622,-11.622 z M 391.465,314.506 H 22.426 v -137.17 h 369.039 z"
   inkscape:connector-curvature="0" />

		
		<path
   id="path4610"
   d="m 348.314,243.912 c -4.014,-1.213 -6.938,-4.946 -6.938,-9.354 v -52.741 h -23.629 v 122.424 h 30.566 v -60.329 z"
   inkscape:connector-curvature="0" />

		<path
   id="path4612"
   d="m 276.608,244.014 c -4.193,-1.096 -7.291,-4.915 -7.291,-9.451 v -52.746 h -16.005 v 52.741 c 0,4.531 -3.087,8.346 -7.27,9.446 v 60.232 h 30.566 z"
   inkscape:connector-curvature="0" />

		<path
   id="path4614"
   d="m 312.458,181.816 v 0 H 288.86 v 52.741 c 0,4.424 -2.939,8.156 -6.968,9.365 v 60.319 h 30.566 z"
   inkscape:connector-curvature="0" />

		<path
   id="path4616"
   d="m 169.047,244.009 v 0 c -4.183,-1.106 -7.27,-4.915 -7.27,-9.446 V 181.817 H 145.5 v 52.741 c 0,4.439 -2.964,8.192 -7.019,9.38 v 60.303 h 30.566 z"
   inkscape:connector-curvature="0" />

		<path
   id="path4618"
   d="m 384.164,181.816 h -23.245 v 52.741 c 0,4.552 -3.113,8.376 -7.322,9.462 v 60.221 h 30.566 V 181.816 Z"
   inkscape:connector-curvature="0" />

		<path
   id="path4620"
   d="m 204.902,181.816 h -23.578 v 52.741 c 0,4.429 -2.949,8.172 -6.989,9.37 v 60.314 h 30.566 V 181.816 Z"
   inkscape:connector-curvature="0" />

		<path
   id="path4622"
   d="m 240.753,243.927 c -4.04,-1.198 -6.989,-4.941 -6.989,-9.37 V 181.816 H 210.186 V 304.24 h 30.566 v -60.313 z"
   inkscape:connector-curvature="0" />

	</g>
    <g
       id="g4628"
       transform="matrix(0.26458333,0,0,0.26458333,217.13369,20.461868)">
</g>
    <g
       id="g4630"
       transform="matrix(0.26458333,0,0,0.26458333,217.13369,20.461868)">
</g>
    <g
       id="g4632"
       transform="matrix(0.26458333,0,0,0.26458333,217.13369,20.461868)">
</g>
    <g
       id="g4634"
       transform="matrix(0.26458333,0,0,0.26458333,217.13369,20.461868)">
</g>
    <g
       id="g4636"
       transform="matrix(0.26458333,0,0,0.26458333,217.13369,20.461868)">
</g>
    <g
       id="g4638"
       transform="matrix(0.26458333,0,0,0.26458333,217.13369,20.461868)">
</g>
    <g
       id="g4640"
       transform="matrix(0.26458333,0,0,0.26458333,217.13369,20.461868)">
</g>
    <g
       id="g4642"
       transform="matrix(0.26458333,0,0,0.26458333,217.13369,20.461868)">
</g>
    <g
       id="g4644"
       transform="matrix(0.26458333,0,0,0.26458333,217.13369,20.461868)">
</g>
    <g
       id="g4646"
       transform="matrix(0.26458333,0,0,0.26458333,217.13369,20.461868)">
</g>
    <g
       id="g4648"
       transform="matrix(0.26458333,0,0,0.26458333,217.13369,20.461868)">
</g>
    <g
       id="g4650"
       transform="matrix(0.26458333,0,0,0.26458333,217.13369,20.461868)">
</g>
    <g
       id="g4652"
       transform="matrix(0.26458333,0,0,0.26458333,217.13369,20.461868)">
</g>
    <g
       id="g4654"
       transform="matrix(0.26458333,0,0,0.26458333,217.13369,20.461868)">
</g>
    <g
       id="g4656"
       transform="matrix(0.26458333,0,0,0.26458333,217.13369,20.461868)">
</g>
  </g>
</svg>
